# xmcd CD database file
#
# Track frame offsets:
#	150
#	23426
#	47632
#	67130
#	90168
#	113900
#	137187
#	151473
#	170783
#	189325
#	212177
#	229489
#
# Disc length: 3426 seconds
#
# Revision: 0
# Processed by: cddbd v1.5.1PL2 Copyright (c) Steve Scherf et al.
# Submitted via: CDex 1.51
#
DISCID=a50d600c
DTITLE=beret - best best beret!!A
DYEAR=2006
DGENRE=Pop
TTITLE0=扉をあけて
TTITLE1=ナチュラルビューティー
TTITLE2=ドライブ
TTITLE3=ここに居る理由
TTITLE4=楽園の月
TTITLE5=CONTRAST[cor de arcoiris]
TTITLE6=旅人と夢想家
TTITLE7=銀河は君のこと
TTITLE8=静かな海、白い香り
TTITLE9=う、ふ、ふ、ふ
TTITLE10=ever blue
TTITLE11=虹の線路-beret,saigenji meet filo machado-
EXTD=YEAR: 2006
EXTT0=
EXTT1=
EXTT2=
EXTT3=
EXTT4=
EXTT5=
EXTT6=
EXTT7=
EXTT8=
EXTT9=
EXTT10=
EXTT11=
PLAYORDER=
